
<global>
ampeg_attack=0.002
ampeg_release=0.35
</global>

<group>
group_label=PP_RR1
seq_length=4
seq_position=1

<region>
end=438829
hikey=D#2
hivel=63
lokey=C2
lovel=0
offset=18204
pitch_keycenter=D2
sample=Fender_Stratocaster_Muted_Sustain_RR1_PP_D3.opus
volume=+14.11
</region>

<region>
end=449069
hikey=F2
hivel=63
lokey=E2
lovel=0
offset=19245
pitch_keycenter=E2
sample=Fender_Stratocaster_Muted_Sustain_RR1_PP_E3.opus
volume=+9.81
</region>

<region>
end=408915
hikey=G2
hivel=63
lokey=F#2
lovel=0
offset=18586
pitch_keycenter=F#2
sample=Fender_Stratocaster_Muted_Sustain_RR1_PP_F#3.opus
volume=+11.81
</region>

<region>
end=451101
hikey=A2
hivel=63
lokey=G#2
lovel=0
offset=18415
pitch_keycenter=G#2
sample=Fender_Stratocaster_Muted_Sustain_RR1_PP_G#3.opus
volume=+12.45
</region>

<region>
end=397477
hikey=B2
hivel=63
lokey=A#2
lovel=0
offset=18311
pitch_keycenter=A#2
sample=Fender_Stratocaster_Muted_Sustain_RR1_PP_A#3.opus
volume=+12.01
</region>

<region>
end=407331
hikey=C#3
hivel=63
lokey=C3
lovel=0
offset=17997
pitch_keycenter=C3
sample=Fender_Stratocaster_Muted_Sustain_RR1_PP_C4.opus
volume=+13.93
</region>

<region>
end=383590
hikey=D#3
hivel=63
lokey=D3
lovel=0
offset=18073
pitch_keycenter=D3
sample=Fender_Stratocaster_Muted_Sustain_RR1_PP_D4.opus
volume=+11.23
</region>

<region>
end=491773
hikey=F3
hivel=63
lokey=E3
lovel=0
offset=18352
pitch_keycenter=E3
sample=Fender_Stratocaster_Muted_Sustain_RR1_PP_E4.opus
volume=+14.83
</region>

<region>
end=504039
hikey=G3
hivel=63
lokey=F#3
lovel=0
offset=18492
pitch_keycenter=F#3
sample=Fender_Stratocaster_Muted_Sustain_RR1_PP_F#4.opus
volume=+13.69
</region>

<region>
end=544025
hikey=A3
hivel=63
lokey=G#3
lovel=0
offset=18037
pitch_keycenter=G#3
sample=Fender_Stratocaster_Muted_Sustain_RR1_PP_G#4.opus
volume=+13.27
</region>

<region>
end=381430
hikey=B3
hivel=63
lokey=A#3
lovel=0
offset=17779
pitch_keycenter=A#3
sample=Fender_Stratocaster_Muted_Sustain_RR1_PP_A#4.opus
volume=+11.20
</region>

<region>
end=378743
hikey=C#4
hivel=63
lokey=C4
lovel=0
offset=18948
sample=Fender_Stratocaster_Muted_Sustain_RR1_PP_C5.opus
volume=+14.25
</region>

<region>
end=549035
hikey=D#4
hivel=63
lokey=D4
lovel=0
offset=18265
pitch_keycenter=D4
sample=Fender_Stratocaster_Muted_Sustain_RR1_PP_D5.opus
volume=+17.83
</region>

<region>
end=541836
hikey=F4
hivel=63
lokey=E4
lovel=0
offset=18654
pitch_keycenter=E4
sample=Fender_Stratocaster_Muted_Sustain_RR1_PP_E5.opus
volume=+13.74
</region>

<region>
end=473293
hikey=G4
hivel=63
lokey=F#4
lovel=0
offset=18966
pitch_keycenter=F#4
sample=Fender_Stratocaster_Muted_Sustain_RR1_PP_F#5.opus
volume=+18.23
</region>

<region>
end=304990
hikey=A4
hivel=63
lokey=G#4
lovel=0
offset=18209
pitch_keycenter=G#4
sample=Fender_Stratocaster_Muted_Sustain_RR1_PP_G#5.opus
volume=+15.01
</region>

<region>
end=352676
hikey=B4
hivel=63
lokey=A#4
lovel=0
offset=18704
pitch_keycenter=A#4
sample=Fender_Stratocaster_Muted_Sustain_RR1_PP_A#5.opus
volume=+15.25
</region>

<region>
end=236253
hikey=C#5
hivel=63
lokey=C5
lovel=0
offset=19693
pitch_keycenter=C5
sample=Fender_Stratocaster_Muted_Sustain_RR1_PP_C6.opus
volume=+18.94
</region>

<region>
end=305882
hikey=D#5
hivel=63
lokey=D5
lovel=0
offset=17082
pitch_keycenter=D5
sample=Fender_Stratocaster_Muted_Sustain_RR1_PP_D6.opus
volume=+18.17
</region>

<region>
end=421713
hikey=F5
hivel=63
lokey=E5
lovel=0
offset=17947
pitch_keycenter=E5
sample=Fender_Stratocaster_Muted_Sustain_RR1_PP_E6.opus
volume=+18.03
</region>

<region>
end=381750
hikey=G5
hivel=63
lokey=F#5
lovel=0
offset=19081
pitch_keycenter=F#5
sample=Fender_Stratocaster_Muted_Sustain_RR1_PP_F#6.opus
volume=+13.27
</region>

<region>
end=307537
hikey=A5
hivel=63
lokey=G#5
lovel=0
offset=19058
pitch_keycenter=G#5
sample=Fender_Stratocaster_Muted_Sustain_RR1_PP_G#6.opus
volume=+14.79
</region>

<region>
end=498240
hikey=B5
hivel=63
lokey=A#5
lovel=0
offset=19790
pitch_keycenter=A#5
sample=Fender_Stratocaster_Muted_Sustain_RR1_PP_A#6.opus
volume=+15.12
</region>

<region>
end=244070
hikey=C#6
hivel=63
lokey=C6
lovel=0
offset=18160
pitch_keycenter=C6
sample=Fender_Stratocaster_Muted_Sustain_RR1_PP_C7.opus
volume=+15.29
</region>
</group>

<group>
group_label=PP_RR2
seq_length=4
seq_position=2

<region>
end=485828
hikey=D#2
hivel=63
lokey=C2
lovel=0
offset=17857
pitch_keycenter=D2
sample=Fender_Stratocaster_Muted_Sustain_RR2_PP_D3.opus
volume=+11.76
</region>

<region>
end=474839
hikey=F2
hivel=63
lokey=E2
lovel=0
offset=19583
pitch_keycenter=E2
sample=Fender_Stratocaster_Muted_Sustain_RR2_PP_E3.opus
volume=+10.93
</region>

<region>
end=539601
hikey=G2
hivel=63
lokey=F#2
lovel=0
offset=18436
pitch_keycenter=F#2
sample=Fender_Stratocaster_Muted_Sustain_RR2_PP_F#3.opus
volume=+12.24
</region>

<region>
end=495348
hikey=A2
hivel=63
lokey=G#2
lovel=0
offset=19220
pitch_keycenter=G#2
sample=Fender_Stratocaster_Muted_Sustain_RR2_PP_G#3.opus
volume=+10.91
</region>

<region>
end=403533
hikey=B2
hivel=63
lokey=A#2
lovel=0
offset=18367
pitch_keycenter=A#2
sample=Fender_Stratocaster_Muted_Sustain_RR2_PP_A#3.opus
volume=+11.31
</region>

<region>
end=562924
hikey=C#3
hivel=63
lokey=C3
lovel=0
offset=19040
pitch_keycenter=C3
sample=Fender_Stratocaster_Muted_Sustain_RR2_PP_C4.opus
volume=+12.07
</region>

<region>
end=320501
hikey=D#3
hivel=63
lokey=D3
lovel=0
offset=19963
pitch_keycenter=D3
sample=Fender_Stratocaster_Muted_Sustain_RR2_PP_D4.opus
volume=+13.54
</region>

<region>
end=304053
hikey=F3
hivel=63
lokey=E3
lovel=0
offset=18996
pitch_keycenter=E3
sample=Fender_Stratocaster_Muted_Sustain_RR2_PP_E4.opus
volume=+13.91
</region>

<region>
end=417134
hikey=G3
hivel=63
lokey=F#3
lovel=0
offset=19963
pitch_keycenter=F#3
sample=Fender_Stratocaster_Muted_Sustain_RR2_PP_F#4.opus
volume=+14.02
</region>

<region>
end=471298
hikey=A3
hivel=63
lokey=G#3
lovel=0
offset=19427
pitch_keycenter=G#3
sample=Fender_Stratocaster_Muted_Sustain_RR2_PP_G#4.opus
volume=+12.60
</region>

<region>
end=479003
hikey=B3
hivel=63
lokey=A#3
lovel=0
offset=18134
pitch_keycenter=A#3
sample=Fender_Stratocaster_Muted_Sustain_RR2_PP_A#4.opus
volume=+16.23
</region>

<region>
end=447766
hikey=C#4
hivel=63
lokey=C4
lovel=0
offset=19755
sample=Fender_Stratocaster_Muted_Sustain_RR2_PP_C5.opus
volume=+14.75
</region>

<region>
end=510281
hikey=D#4
hivel=63
lokey=D4
lovel=0
offset=19482
pitch_keycenter=D4
sample=Fender_Stratocaster_Muted_Sustain_RR2_PP_D5.opus
volume=+18.46
</region>

<region>
end=457989
hikey=F4
hivel=63
lokey=E4
lovel=0
offset=17163
pitch_keycenter=E4
sample=Fender_Stratocaster_Muted_Sustain_RR2_PP_E5.opus
volume=+17.11
</region>

<region>
end=347891
hikey=G4
hivel=63
lokey=F#4
lovel=0
offset=18443
pitch_keycenter=F#4
sample=Fender_Stratocaster_Muted_Sustain_RR2_PP_F#5.opus
volume=+11.29
</region>

<region>
end=380441
hikey=A4
hivel=63
lokey=G#4
lovel=0
offset=18865
pitch_keycenter=G#4
sample=Fender_Stratocaster_Muted_Sustain_RR2_PP_G#5.opus
volume=+14.86
</region>

<region>
end=363121
hikey=B4
hivel=63
lokey=A#4
lovel=0
offset=17946
pitch_keycenter=A#4
sample=Fender_Stratocaster_Muted_Sustain_RR2_PP_A#5.opus
volume=+12.44
</region>

<region>
end=222558
hikey=C#5
hivel=63
lokey=C5
lovel=0
offset=19883
pitch_keycenter=C5
sample=Fender_Stratocaster_Muted_Sustain_RR2_PP_C6.opus
volume=+17.16
</region>

<region>
end=320992
hikey=D#5
hivel=63
lokey=D5
lovel=0
offset=20798
pitch_keycenter=D5
sample=Fender_Stratocaster_Muted_Sustain_RR2_PP_D6.opus
volume=+14.90
</region>

<region>
end=408160
hikey=F5
hivel=63
lokey=E5
lovel=0
offset=18217
pitch_keycenter=E5
sample=Fender_Stratocaster_Muted_Sustain_RR2_PP_E6.opus
volume=+17.55
</region>

<region>
end=378406
hikey=G5
hivel=63
lokey=F#5
lovel=0
offset=19143
pitch_keycenter=F#5
sample=Fender_Stratocaster_Muted_Sustain_RR2_PP_F#6.opus
volume=+11.47
</region>

<region>
end=373150
hikey=A5
hivel=63
lokey=G#5
lovel=0
offset=18366
pitch_keycenter=G#5
sample=Fender_Stratocaster_Muted_Sustain_RR2_PP_G#6.opus
volume=+12.84
</region>

<region>
end=382670
hikey=B5
hivel=63
lokey=A#5
lovel=0
offset=19385
pitch_keycenter=A#5
sample=Fender_Stratocaster_Muted_Sustain_RR2_PP_A#6.opus
volume=+16.85
</region>

<region>
end=394265
hikey=C#6
hivel=63
lokey=C6
lovel=0
offset=17905
pitch_keycenter=C6
sample=Fender_Stratocaster_Muted_Sustain_RR2_PP_C7.opus
volume=+14.59
</region>
</group>

<group>
group_label=PP_RR3
seq_length=4
seq_position=3

<region>
end=407786
hikey=D#2
hivel=63
lokey=C2
lovel=0
offset=18263
pitch_keycenter=D2
sample=Fender_Stratocaster_Muted_Sustain_RR3_PP_D3.opus
volume=+9.92
</region>

<region>
end=429332
hikey=F2
hivel=63
lokey=E2
lovel=0
offset=18965
pitch_keycenter=E2
sample=Fender_Stratocaster_Muted_Sustain_RR3_PP_E3.opus
volume=+12.39
</region>

<region>
end=559715
hikey=G2
hivel=63
lokey=F#2
lovel=0
offset=17616
pitch_keycenter=F#2
sample=Fender_Stratocaster_Muted_Sustain_RR3_PP_F#3.opus
volume=+10.01
</region>

<region>
end=561847
hikey=A2
hivel=63
lokey=G#2
lovel=0
offset=18375
pitch_keycenter=G#2
sample=Fender_Stratocaster_Muted_Sustain_RR3_PP_G#3.opus
volume=+12.53
</region>

<region>
end=292940
hikey=B2
hivel=63
lokey=A#2
lovel=0
offset=19627
pitch_keycenter=A#2
sample=Fender_Stratocaster_Muted_Sustain_RR3_PP_A#3.opus
volume=+11.70
</region>

<region>
hikey=C#3
hivel=63
lokey=C3
lovel=0
offset=18363
pitch_keycenter=C3
sample=Fender_Stratocaster_Muted_Sustain_RR3_PP_C4.opus
volume=+13.58
</region>

<region>
end=274339
hikey=D#3
hivel=63
lokey=D3
lovel=0
offset=18490
pitch_keycenter=D3
sample=Fender_Stratocaster_Muted_Sustain_RR3_PP_D4.opus
volume=+13.51
</region>

<region>
end=438983
hikey=F3
hivel=63
lokey=E3
lovel=0
offset=18984
pitch_keycenter=E3
sample=Fender_Stratocaster_Muted_Sustain_RR3_PP_E4.opus
volume=+11.41
</region>

<region>
end=432310
hikey=G3
hivel=63
lokey=F#3
lovel=0
offset=18899
pitch_keycenter=F#3
sample=Fender_Stratocaster_Muted_Sustain_RR3_PP_F#4.opus
volume=+11.06
</region>

<region>
end=389918
hikey=A3
hivel=63
lokey=G#3
lovel=0
offset=19665
pitch_keycenter=G#3
sample=Fender_Stratocaster_Muted_Sustain_RR3_PP_G#4.opus
volume=+16.45
</region>

<region>
end=524851
hikey=B3
hivel=63
lokey=A#3
lovel=0
offset=18229
pitch_keycenter=A#3
sample=Fender_Stratocaster_Muted_Sustain_RR3_PP_A#4.opus
volume=+14.25
</region>

<region>
end=474954
hikey=C#4
hivel=63
lokey=C4
lovel=0
offset=18250
sample=Fender_Stratocaster_Muted_Sustain_RR3_PP_C5.opus
volume=+15.34
</region>

<region>
end=393024
hikey=D#4
hivel=63
lokey=D4
lovel=0
offset=18818
pitch_keycenter=D4
sample=Fender_Stratocaster_Muted_Sustain_RR3_PP_D5.opus
volume=+13.65
</region>

<region>
end=448009
hikey=F4
hivel=63
lokey=E4
lovel=0
offset=19783
pitch_keycenter=E4
sample=Fender_Stratocaster_Muted_Sustain_RR3_PP_E5.opus
volume=+14.36
</region>

<region>
end=381993
hikey=G4
hivel=63
lokey=F#4
lovel=0
offset=18821
pitch_keycenter=F#4
sample=Fender_Stratocaster_Muted_Sustain_RR3_PP_F#5.opus
volume=+14.26
</region>

<region>
end=475925
hikey=A4
hivel=63
lokey=G#4
lovel=0
offset=19066
pitch_keycenter=G#4
sample=Fender_Stratocaster_Muted_Sustain_RR3_PP_G#5.opus
volume=+14.47
</region>

<region>
end=394811
hikey=B4
hivel=63
lokey=A#4
lovel=0
offset=18280
pitch_keycenter=A#4
sample=Fender_Stratocaster_Muted_Sustain_RR3_PP_A#5.opus
volume=+15.28
</region>

<region>
end=357225
hikey=C#5
hivel=63
lokey=C5
lovel=0
offset=17731
pitch_keycenter=C5
sample=Fender_Stratocaster_Muted_Sustain_RR3_PP_C6.opus
volume=+19.09
</region>

<region>
end=274707
hikey=D#5
hivel=63
lokey=D5
lovel=0
offset=18308
pitch_keycenter=D5
sample=Fender_Stratocaster_Muted_Sustain_RR3_PP_D6.opus
volume=+15.37
</region>

<region>
end=497500
hikey=F5
hivel=63
lokey=E5
lovel=0
offset=18877
pitch_keycenter=E5
sample=Fender_Stratocaster_Muted_Sustain_RR3_PP_E6.opus
volume=+19.30
</region>

<region>
end=291921
hikey=G5
hivel=63
lokey=F#5
lovel=0
offset=19640
pitch_keycenter=F#5
sample=Fender_Stratocaster_Muted_Sustain_RR3_PP_F#6.opus
volume=+12.09
</region>

<region>
end=276714
hikey=A5
hivel=63
lokey=G#5
lovel=0
offset=19909
pitch_keycenter=G#5
sample=Fender_Stratocaster_Muted_Sustain_RR3_PP_G#6.opus
volume=+14.25
</region>

<region>
end=299126
hikey=B5
hivel=63
lokey=A#5
lovel=0
offset=19199
pitch_keycenter=A#5
sample=Fender_Stratocaster_Muted_Sustain_RR3_PP_A#6.opus
volume=+17.08
</region>

<region>
end=403307
hikey=C#6
hivel=63
lokey=C6
lovel=0
offset=18882
pitch_keycenter=C6
sample=Fender_Stratocaster_Muted_Sustain_RR3_PP_C7.opus
volume=+14.83
</region>
</group>

<group>
group_label=PP_RR4
seq_length=4
seq_position=4

<region>
end=533262
hikey=D#2
hivel=63
lokey=C2
lovel=0
offset=19407
pitch_keycenter=D2
sample=Fender_Stratocaster_Muted_Sustain_RR4_PP_D3.opus
volume=+9.66
</region>

<region>
end=486786
hikey=F2
hivel=63
lokey=E2
lovel=0
offset=18800
pitch_keycenter=E2
sample=Fender_Stratocaster_Muted_Sustain_RR4_PP_E3.opus
volume=+9.66
</region>

<region>
end=515077
hikey=G2
hivel=63
lokey=F#2
lovel=0
offset=19043
pitch_keycenter=F#2
sample=Fender_Stratocaster_Muted_Sustain_RR4_PP_F#3.opus
volume=+11.94
</region>

<region>
end=541624
hikey=A2
hivel=63
lokey=G#2
lovel=0
offset=18999
pitch_keycenter=G#2
sample=Fender_Stratocaster_Muted_Sustain_RR4_PP_G#3.opus
volume=+14.03
</region>

<region>
end=406011
hikey=B2
hivel=63
lokey=A#2
lovel=0
offset=18786
pitch_keycenter=A#2
sample=Fender_Stratocaster_Muted_Sustain_RR4_PP_A#3.opus
volume=+12.06
</region>

<region>
end=493476
hikey=C#3
hivel=63
lokey=C3
lovel=0
offset=19123
pitch_keycenter=C3
sample=Fender_Stratocaster_Muted_Sustain_RR4_PP_C4.opus
volume=+11.08
</region>

<region>
end=578626
hikey=D#3
hivel=63
lokey=D3
lovel=0
offset=20186
pitch_keycenter=D3
sample=Fender_Stratocaster_Muted_Sustain_RR4_PP_D4.opus
volume=+12.44
</region>

<region>
end=408875
hikey=F3
hivel=63
lokey=E3
lovel=0
offset=18259
pitch_keycenter=E3
sample=Fender_Stratocaster_Muted_Sustain_RR4_PP_E4.opus
volume=+13.49
</region>

<region>
end=335028
hikey=G3
hivel=63
lokey=F#3
lovel=0
offset=19119
pitch_keycenter=F#3
sample=Fender_Stratocaster_Muted_Sustain_RR4_PP_F#4.opus
volume=+13.54
</region>

<region>
end=333459
hikey=A3
hivel=63
lokey=G#3
lovel=0
offset=19931
pitch_keycenter=G#3
sample=Fender_Stratocaster_Muted_Sustain_RR4_PP_G#4.opus
volume=+12.16
</region>

<region>
end=493328
hikey=B3
hivel=63
lokey=A#3
lovel=0
offset=18730
pitch_keycenter=A#3
sample=Fender_Stratocaster_Muted_Sustain_RR4_PP_A#4.opus
volume=+9.43
</region>

<region>
end=559319
hikey=C#4
hivel=63
lokey=C4
lovel=0
offset=18637
sample=Fender_Stratocaster_Muted_Sustain_RR4_PP_C5.opus
volume=+20.15
</region>

<region>
end=294496
hikey=D#4
hivel=63
lokey=D4
lovel=0
offset=19105
pitch_keycenter=D4
sample=Fender_Stratocaster_Muted_Sustain_RR4_PP_D5.opus
volume=+15.61
</region>

<region>
end=466480
hikey=F4
hivel=63
lokey=E4
lovel=0
offset=19587
pitch_keycenter=E4
sample=Fender_Stratocaster_Muted_Sustain_RR4_PP_E5.opus
volume=+16.35
</region>

<region>
end=439935
hikey=G4
hivel=63
lokey=F#4
lovel=0
offset=19228
pitch_keycenter=F#4
sample=Fender_Stratocaster_Muted_Sustain_RR4_PP_F#5.opus
volume=+18.41
</region>

<region>
end=357583
hikey=A4
hivel=63
lokey=G#4
lovel=0
offset=17350
pitch_keycenter=G#4
sample=Fender_Stratocaster_Muted_Sustain_RR4_PP_G#5.opus
volume=+16.35
</region>

<region>
end=304487
hikey=B4
hivel=63
lokey=A#4
lovel=0
offset=19502
pitch_keycenter=A#4
sample=Fender_Stratocaster_Muted_Sustain_RR4_PP_A#5.opus
volume=+15.54
</region>

<region>
end=440644
hikey=C#5
hivel=63
lokey=C5
lovel=0
offset=19193
pitch_keycenter=C5
sample=Fender_Stratocaster_Muted_Sustain_RR4_PP_C6.opus
volume=+17.30
</region>

<region>
end=405517
hikey=D#5
hivel=63
lokey=D5
lovel=0
offset=18381
pitch_keycenter=D5
sample=Fender_Stratocaster_Muted_Sustain_RR4_PP_D6.opus
volume=+16.19
</region>

<region>
end=378986
hikey=F5
hivel=63
lokey=E5
lovel=0
offset=18193
pitch_keycenter=E5
sample=Fender_Stratocaster_Muted_Sustain_RR4_PP_E6.opus
volume=+14.22
</region>

<region>
end=266374
hikey=G5
hivel=63
lokey=F#5
lovel=0
offset=19014
pitch_keycenter=F#5
sample=Fender_Stratocaster_Muted_Sustain_RR4_PP_F#6.opus
volume=+15.02
</region>

<region>
end=304610
hikey=A5
hivel=63
lokey=G#5
lovel=0
offset=18118
pitch_keycenter=G#5
sample=Fender_Stratocaster_Muted_Sustain_RR4_PP_G#6.opus
volume=+15.64
</region>

<region>
end=256531
hikey=B5
hivel=63
lokey=A#5
lovel=0
offset=19262
pitch_keycenter=A#5
sample=Fender_Stratocaster_Muted_Sustain_RR4_PP_A#6.opus
volume=+16.23
</region>

<region>
end=203007
hikey=C#6
hivel=63
lokey=C6
lovel=0
offset=18582
pitch_keycenter=C6
sample=Fender_Stratocaster_Muted_Sustain_RR4_PP_C7.opus
volume=+15.16
</region>
</group>

<group>
group_label=FF_RR1
seq_length=4
seq_position=1

<region>
end=395291
hikey=D#2
hivel=127
lokey=C2
lovel=64
offset=19669
pitch_keycenter=D2
sample=Fender_Stratocaster_Muted_Sustain_RR1_FF_D3.opus
volume=+6.08
</region>

<region>
end=177993
hikey=F2
hivel=127
lokey=E2
lovel=64
offset=18875
pitch_keycenter=E2
sample=Fender_Stratocaster_Muted_Sustain_RR1_FF_E3.opus
volume=+0.31
</region>

<region>
end=188091
hikey=G2
hivel=127
lokey=F#2
lovel=64
offset=16445
pitch_keycenter=F#2
sample=Fender_Stratocaster_Muted_Sustain_RR1_FF_F#3.opus
volume=+3.62
</region>

<region>
end=215830
hikey=A2
hivel=127
lokey=G#2
lovel=64
offset=19143
pitch_keycenter=G#2
sample=Fender_Stratocaster_Muted_Sustain_RR1_FF_G#3.opus
volume=+1.17
</region>

<region>
end=322927
hikey=B2
hivel=127
lokey=A#2
lovel=64
offset=19037
pitch_keycenter=A#2
sample=Fender_Stratocaster_Muted_Sustain_RR1_FF_A#3.opus
volume=+1.35
</region>

<region>
end=561819
hikey=C#3
hivel=127
lokey=C3
lovel=64
offset=20059
pitch_keycenter=C3
sample=Fender_Stratocaster_Muted_Sustain_RR1_FF_C4.opus
volume=+9.89
</region>

<region>
end=531622
hikey=D#3
hivel=127
lokey=D3
lovel=64
offset=18757
pitch_keycenter=D3
sample=Fender_Stratocaster_Muted_Sustain_RR1_FF_D4.opus
volume=+8.06
</region>

<region>
end=515723
hikey=F3
hivel=127
lokey=E3
lovel=64
offset=17975
pitch_keycenter=E3
sample=Fender_Stratocaster_Muted_Sustain_RR1_FF_E4.opus
volume=+5.97
</region>

<region>
end=347791
hikey=G3
hivel=127
lokey=F#3
lovel=64
offset=18399
pitch_keycenter=F#3
sample=Fender_Stratocaster_Muted_Sustain_RR1_FF_F#4.opus
volume=+11.14
</region>

<region>
end=237088
hikey=A3
hivel=127
lokey=G#3
lovel=64
offset=18397
pitch_keycenter=G#3
sample=Fender_Stratocaster_Muted_Sustain_RR1_FF_G#4.opus
volume=+12.62
</region>

<region>
end=467849
hikey=B3
hivel=127
lokey=A#3
lovel=64
offset=18194
pitch_keycenter=A#3
sample=Fender_Stratocaster_Muted_Sustain_RR1_FF_A#4.opus
volume=+11.92
</region>

<region>
end=191821
hikey=C#4
hivel=127
lokey=C4
lovel=64
offset=19703
sample=Fender_Stratocaster_Muted_Sustain_RR1_FF_C5.opus
volume=+10.48
</region>

<region>
end=185182
hikey=D#4
hivel=127
lokey=D4
lovel=64
offset=17697
pitch_keycenter=D4
sample=Fender_Stratocaster_Muted_Sustain_RR1_FF_D5.opus
volume=+7.59
</region>

<region>
end=166033
hikey=F4
hivel=127
lokey=E4
lovel=64
offset=19512
pitch_keycenter=E4
sample=Fender_Stratocaster_Muted_Sustain_RR1_FF_E5.opus
volume=+8.14
</region>

<region>
end=201135
hikey=G4
hivel=127
lokey=F#4
lovel=64
offset=18434
pitch_keycenter=F#4
sample=Fender_Stratocaster_Muted_Sustain_RR1_FF_F#5.opus
volume=+7.15
</region>

<region>
end=418921
hikey=A4
hivel=127
lokey=G#4
lovel=64
offset=18369
pitch_keycenter=G#4
sample=Fender_Stratocaster_Muted_Sustain_RR1_FF_G#5.opus
volume=+6.79
</region>

<region>
end=202461
hikey=B4
hivel=127
lokey=A#4
lovel=64
offset=17944
pitch_keycenter=A#4
sample=Fender_Stratocaster_Muted_Sustain_RR1_FF_A#5.opus
volume=+7.13
</region>

<region>
end=335451
hikey=C#5
hivel=127
lokey=C5
lovel=64
offset=14730
pitch_keycenter=C5
sample=Fender_Stratocaster_Muted_Sustain_RR1_FF_C6.opus
volume=+6.53
</region>

<region>
end=146625
hikey=D#5
hivel=127
lokey=D5
lovel=64
offset=18761
pitch_keycenter=D5
sample=Fender_Stratocaster_Muted_Sustain_RR1_FF_D6.opus
volume=+8.62
</region>

<region>
end=188877
hikey=F5
hivel=127
lokey=E5
lovel=64
offset=17542
pitch_keycenter=E5
sample=Fender_Stratocaster_Muted_Sustain_RR1_FF_E6.opus
volume=+8.57
</region>

<region>
end=220595
hikey=G5
hivel=127
lokey=F#5
lovel=64
offset=18421
pitch_keycenter=F#5
sample=Fender_Stratocaster_Muted_Sustain_RR1_FF_F#6.opus
volume=+9.54
</region>

<region>
end=176296
hikey=A5
hivel=127
lokey=G#5
lovel=64
offset=18680
pitch_keycenter=G#5
sample=Fender_Stratocaster_Muted_Sustain_RR1_FF_G#6.opus
volume=+12.67
</region>

<region>
end=110174
hikey=B5
hivel=127
lokey=A#5
lovel=64
offset=19181
pitch_keycenter=A#5
sample=Fender_Stratocaster_Muted_Sustain_RR1_FF_A#6.opus
volume=+10.30
</region>

<region>
end=198002
hikey=C#6
hivel=127
lokey=C6
lovel=64
offset=18251
pitch_keycenter=C6
sample=Fender_Stratocaster_Muted_Sustain_RR1_FF_C7.opus
volume=+8.92
</region>
</group>

<group>
group_label=FF_RR2
seq_length=4
seq_position=2

<region>
end=273581
hikey=D#2
hivel=127
lokey=C2
lovel=64
offset=19354
pitch_keycenter=D2
sample=Fender_Stratocaster_Muted_Sustain_RR2_FF_D3.opus
volume=+4.82
</region>

<region>
end=378023
hikey=F2
hivel=127
lokey=E2
lovel=64
offset=18674
pitch_keycenter=E2
sample=Fender_Stratocaster_Muted_Sustain_RR2_FF_E3.opus
volume=+6.58
</region>

<region>
end=311395
hikey=G2
hivel=127
lokey=F#2
lovel=64
offset=18841
pitch_keycenter=F#2
sample=Fender_Stratocaster_Muted_Sustain_RR2_FF_F#3.opus
volume=+4.36
</region>

<region>
end=565043
hikey=A2
hivel=127
lokey=G#2
lovel=64
offset=17761
pitch_keycenter=G#2
sample=Fender_Stratocaster_Muted_Sustain_RR2_FF_G#3.opus
volume=+4.23
</region>

<region>
end=374918
hikey=B2
hivel=127
lokey=A#2
lovel=64
offset=17529
pitch_keycenter=A#2
sample=Fender_Stratocaster_Muted_Sustain_RR2_FF_A#3.opus
volume=+4.27
</region>

<region>
end=552427
hikey=C#3
hivel=127
lokey=C3
lovel=64
offset=18431
pitch_keycenter=C3
sample=Fender_Stratocaster_Muted_Sustain_RR2_FF_C4.opus
volume=+8.22
</region>

<region>
end=597406
hikey=D#3
hivel=127
lokey=D3
lovel=64
offset=19250
pitch_keycenter=D3
sample=Fender_Stratocaster_Muted_Sustain_RR2_FF_D4.opus
volume=+6.70
</region>

<region>
end=538181
hikey=F3
hivel=127
lokey=E3
lovel=64
offset=17584
pitch_keycenter=E3
sample=Fender_Stratocaster_Muted_Sustain_RR2_FF_E4.opus
volume=+6.03
</region>

<region>
end=590015
hikey=G3
hivel=127
lokey=F#3
lovel=64
offset=18282
pitch_keycenter=F#3
sample=Fender_Stratocaster_Muted_Sustain_RR2_FF_F#4.opus
volume=+5.74
</region>

<region>
end=589509
hikey=A3
hivel=127
lokey=G#3
lovel=64
offset=17966
pitch_keycenter=G#3
sample=Fender_Stratocaster_Muted_Sustain_RR2_FF_G#4.opus
volume=+10.79
</region>

<region>
end=274104
hikey=B3
hivel=127
lokey=A#3
lovel=64
offset=18402
pitch_keycenter=A#3
sample=Fender_Stratocaster_Muted_Sustain_RR2_FF_A#4.opus
volume=+12.22
</region>

<region>
end=287808
hikey=C#4
hivel=127
lokey=C4
lovel=64
offset=18373
sample=Fender_Stratocaster_Muted_Sustain_RR2_FF_C5.opus
volume=+8.79
</region>

<region>
end=276797
hikey=D#4
hivel=127
lokey=D4
lovel=64
offset=18297
pitch_keycenter=D4
sample=Fender_Stratocaster_Muted_Sustain_RR2_FF_D5.opus
volume=+8.82
</region>

<region>
end=379208
hikey=F4
hivel=127
lokey=E4
lovel=64
offset=18575
pitch_keycenter=E4
sample=Fender_Stratocaster_Muted_Sustain_RR2_FF_E5.opus
volume=+7.96
</region>

<region>
end=118106
hikey=G4
hivel=127
lokey=F#4
lovel=64
offset=18845
pitch_keycenter=F#4
sample=Fender_Stratocaster_Muted_Sustain_RR2_FF_F#5.opus
volume=+6.89
</region>

<region>
end=186339
hikey=A4
hivel=127
lokey=G#4
lovel=64
offset=17130
pitch_keycenter=G#4
sample=Fender_Stratocaster_Muted_Sustain_RR2_FF_G#5.opus
volume=+7.50
</region>

<region>
hikey=B4
hivel=127
lokey=A#4
lovel=64
offset=19120
pitch_keycenter=A#4
sample=Fender_Stratocaster_Muted_Sustain_RR2_FF_A#5.opus
volume=+7.41
</region>

<region>
end=263798
hikey=C#5
hivel=127
lokey=C5
lovel=64
offset=18872
pitch_keycenter=C5
sample=Fender_Stratocaster_Muted_Sustain_RR2_FF_C6.opus
volume=+8.71
</region>

<region>
end=283727
hikey=D#5
hivel=127
lokey=D5
lovel=64
offset=18448
pitch_keycenter=D5
sample=Fender_Stratocaster_Muted_Sustain_RR2_FF_D6.opus
volume=+10.24
</region>

<region>
end=278020
hikey=F5
hivel=127
lokey=E5
lovel=64
offset=18535
pitch_keycenter=E5
sample=Fender_Stratocaster_Muted_Sustain_RR2_FF_E6.opus
volume=+9.99
</region>

<region>
end=442396
hikey=G5
hivel=127
lokey=F#5
lovel=64
offset=19601
pitch_keycenter=F#5
sample=Fender_Stratocaster_Muted_Sustain_RR2_FF_F#6.opus
volume=+11.15
</region>

<region>
end=134213
hikey=A5
hivel=127
lokey=G#5
lovel=64
offset=19592
pitch_keycenter=G#5
sample=Fender_Stratocaster_Muted_Sustain_RR2_FF_G#6.opus
volume=+15.14
</region>

<region>
end=105304
hikey=B5
hivel=127
lokey=A#5
lovel=64
offset=19924
pitch_keycenter=A#5
sample=Fender_Stratocaster_Muted_Sustain_RR2_FF_A#6.opus
volume=+12.42
</region>

<region>
end=116353
hikey=C#6
hivel=127
lokey=C6
lovel=64
offset=19489
pitch_keycenter=C6
sample=Fender_Stratocaster_Muted_Sustain_RR2_FF_C7.opus
volume=+11.91
</region>
</group>

<group>
group_label=FF_RR3
seq_length=4
seq_position=3

<region>
end=399192
hikey=D#2
hivel=127
lokey=C2
lovel=64
offset=18414
pitch_keycenter=D2
sample=Fender_Stratocaster_Muted_Sustain_RR3_FF_D3.opus
volume=+1.56
</region>

<region>
end=417994
hikey=F2
hivel=127
lokey=E2
lovel=64
offset=17277
pitch_keycenter=E2
sample=Fender_Stratocaster_Muted_Sustain_RR3_FF_E3.opus
volume=+3.88
</region>

<region>
end=452276
hikey=G2
hivel=127
lokey=F#2
lovel=64
offset=17287
pitch_keycenter=F#2
sample=Fender_Stratocaster_Muted_Sustain_RR3_FF_F#3.opus
volume=+2.54
</region>

<region>
end=320806
hikey=A2
hivel=127
lokey=G#2
lovel=64
offset=18664
pitch_keycenter=G#2
sample=Fender_Stratocaster_Muted_Sustain_RR3_FF_G#3.opus
volume=+2.23
</region>

<region>
end=575689
hikey=B2
hivel=127
lokey=A#2
lovel=64
offset=18481
pitch_keycenter=A#2
sample=Fender_Stratocaster_Muted_Sustain_RR3_FF_A#3.opus
volume=+4.63
</region>

<region>
end=565003
hikey=C#3
hivel=127
lokey=C3
lovel=64
offset=18802
pitch_keycenter=C3
sample=Fender_Stratocaster_Muted_Sustain_RR3_FF_C4.opus
volume=+5.03
</region>

<region>
end=511058
hikey=D#3
hivel=127
lokey=D3
lovel=64
offset=17869
pitch_keycenter=D3
sample=Fender_Stratocaster_Muted_Sustain_RR3_FF_D4.opus
volume=+5.63
</region>

<region>
end=611347
hikey=F3
hivel=127
lokey=E3
lovel=64
offset=17334
pitch_keycenter=E3
sample=Fender_Stratocaster_Muted_Sustain_RR3_FF_E4.opus
volume=+4.50
</region>

<region>
end=564734
hikey=G3
hivel=127
lokey=F#3
lovel=64
offset=17559
pitch_keycenter=F#3
sample=Fender_Stratocaster_Muted_Sustain_RR3_FF_F#4.opus
volume=+6.78
</region>

<region>
end=537557
hikey=A3
hivel=127
lokey=G#3
lovel=64
offset=17991
pitch_keycenter=G#3
sample=Fender_Stratocaster_Muted_Sustain_RR3_FF_G#4.opus
volume=+9.88
</region>

<region>
end=461810
hikey=B3
hivel=127
lokey=A#3
lovel=64
offset=18565
pitch_keycenter=A#3
sample=Fender_Stratocaster_Muted_Sustain_RR3_FF_A#4.opus
volume=+11.44
</region>

<region>
end=371067
hikey=C#4
hivel=127
lokey=C4
lovel=64
offset=19094
sample=Fender_Stratocaster_Muted_Sustain_RR3_FF_C5.opus
volume=+9.46
</region>

<region>
end=351441
hikey=D#4
hivel=127
lokey=D4
lovel=64
offset=19567
pitch_keycenter=D4
sample=Fender_Stratocaster_Muted_Sustain_RR3_FF_D5.opus
volume=+9.97
</region>

<region>
end=268646
hikey=F4
hivel=127
lokey=E4
lovel=64
offset=19442
pitch_keycenter=E4
sample=Fender_Stratocaster_Muted_Sustain_RR3_FF_E5.opus
volume=+7.50
</region>

<region>
end=403076
hikey=G4
hivel=127
lokey=F#4
lovel=64
offset=18341
pitch_keycenter=F#4
sample=Fender_Stratocaster_Muted_Sustain_RR3_FF_F#5.opus
volume=+10.11
</region>

<region>
end=547258
hikey=A4
hivel=127
lokey=G#4
lovel=64
offset=15995
pitch_keycenter=G#4
sample=Fender_Stratocaster_Muted_Sustain_RR3_FF_G#5.opus
volume=+6.66
</region>

<region>
end=255196
hikey=B4
hivel=127
lokey=A#4
lovel=64
offset=18601
pitch_keycenter=A#4
sample=Fender_Stratocaster_Muted_Sustain_RR3_FF_A#5.opus
volume=+7.32
</region>

<region>
end=233127
hikey=C#5
hivel=127
lokey=C5
lovel=64
offset=18314
pitch_keycenter=C5
sample=Fender_Stratocaster_Muted_Sustain_RR3_FF_C6.opus
volume=+6.88
</region>

<region>
end=347014
hikey=D#5
hivel=127
lokey=D5
lovel=64
offset=18290
pitch_keycenter=D5
sample=Fender_Stratocaster_Muted_Sustain_RR3_FF_D6.opus
volume=+11.74
</region>

<region>
end=364630
hikey=F5
hivel=127
lokey=E5
lovel=64
offset=17614
pitch_keycenter=E5
sample=Fender_Stratocaster_Muted_Sustain_RR3_FF_E6.opus
volume=+8.43
</region>

<region>
end=395408
hikey=G5
hivel=127
lokey=F#5
lovel=64
offset=18926
pitch_keycenter=F#5
sample=Fender_Stratocaster_Muted_Sustain_RR3_FF_F#6.opus
volume=+9.45
</region>

<region>
end=204630
hikey=A5
hivel=127
lokey=G#5
lovel=64
offset=19047
pitch_keycenter=G#5
sample=Fender_Stratocaster_Muted_Sustain_RR3_FF_G#6.opus
volume=+14.08
</region>

<region>
end=306891
hikey=B5
hivel=127
lokey=A#5
lovel=64
offset=18191
pitch_keycenter=A#5
sample=Fender_Stratocaster_Muted_Sustain_RR3_FF_A#6.opus
volume=+11.12
</region>

<region>
end=173541
hikey=C#6
hivel=127
lokey=C6
lovel=64
offset=19412
pitch_keycenter=C6
sample=Fender_Stratocaster_Muted_Sustain_RR3_FF_C7.opus
volume=+11.13
</region>
</group>

<group>
group_label=FF_RR4
seq_length=4
seq_position=4

<region>
end=377929
hikey=D#2
hivel=127
lokey=C2
lovel=64
offset=19296
pitch_keycenter=D2
sample=Fender_Stratocaster_Muted_Sustain_RR4_FF_D3.opus
volume=+0.80
</region>

<region>
end=446017
hikey=F2
hivel=127
lokey=E2
lovel=64
offset=17129
pitch_keycenter=E2
sample=Fender_Stratocaster_Muted_Sustain_RR4_FF_E3.opus
volume=+1.28
</region>

<region>
end=340715
hikey=G2
hivel=127
lokey=F#2
lovel=64
offset=19494
pitch_keycenter=F#2
sample=Fender_Stratocaster_Muted_Sustain_RR4_FF_F#3.opus
volume=+4.21
</region>

<region>
end=381084
hikey=A2
hivel=127
lokey=G#2
lovel=64
offset=19157
pitch_keycenter=G#2
sample=Fender_Stratocaster_Muted_Sustain_RR4_FF_G#3.opus
volume=+3.51
</region>

<region>
end=597052
hikey=B2
hivel=127
lokey=A#2
lovel=64
offset=19397
pitch_keycenter=A#2
sample=Fender_Stratocaster_Muted_Sustain_RR4_FF_A#3.opus
volume=+3.68
</region>

<region>
end=604688
hikey=C#3
hivel=127
lokey=C3
lovel=64
offset=16409
pitch_keycenter=C3
sample=Fender_Stratocaster_Muted_Sustain_RR4_FF_C4.opus
volume=+7.13
</region>

<region>
end=571234
hikey=D#3
hivel=127
lokey=D3
lovel=64
offset=18853
pitch_keycenter=D3
sample=Fender_Stratocaster_Muted_Sustain_RR4_FF_D4.opus
volume=+4.67
</region>

<region>
end=525617
hikey=F3
hivel=127
lokey=E3
lovel=64
offset=17451
pitch_keycenter=E3
sample=Fender_Stratocaster_Muted_Sustain_RR4_FF_E4.opus
volume=+3.44
</region>

<region>
end=571544
hikey=G3
hivel=127
lokey=F#3
lovel=64
offset=17488
pitch_keycenter=F#3
sample=Fender_Stratocaster_Muted_Sustain_RR4_FF_F#4.opus
volume=+10.99
</region>

<region>
end=467377
hikey=A3
hivel=127
lokey=G#3
lovel=64
offset=18199
pitch_keycenter=G#3
sample=Fender_Stratocaster_Muted_Sustain_RR4_FF_G#4.opus
volume=+7.61
</region>

<region>
end=531742
hikey=B3
hivel=127
lokey=A#3
lovel=64
offset=19327
pitch_keycenter=A#3
sample=Fender_Stratocaster_Muted_Sustain_RR4_FF_A#4.opus
volume=+13.85
</region>

<region>
end=391001
hikey=C#4
hivel=127
lokey=C4
lovel=64
offset=18663
sample=Fender_Stratocaster_Muted_Sustain_RR4_FF_C5.opus
volume=+10.28
</region>

<region>
end=416499
hikey=D#4
hivel=127
lokey=D4
lovel=64
offset=16693
pitch_keycenter=D4
sample=Fender_Stratocaster_Muted_Sustain_RR4_FF_D5.opus
volume=+9.58
</region>

<region>
end=362644
hikey=F4
hivel=127
lokey=E4
lovel=64
offset=19238
pitch_keycenter=E4
sample=Fender_Stratocaster_Muted_Sustain_RR4_FF_E5.opus
volume=+7.02
</region>

<region>
end=507900
hikey=G4
hivel=127
lokey=F#4
lovel=64
offset=20050
pitch_keycenter=F#4
sample=Fender_Stratocaster_Muted_Sustain_RR4_FF_F#5.opus
volume=+12.40
</region>

<region>
end=313730
hikey=A4
hivel=127
lokey=G#4
lovel=64
offset=19023
pitch_keycenter=G#4
sample=Fender_Stratocaster_Muted_Sustain_RR4_FF_G#5.opus
volume=+7.63
</region>

<region>
end=208685
hikey=B4
hivel=127
lokey=A#4
lovel=64
offset=17432
pitch_keycenter=A#4
sample=Fender_Stratocaster_Muted_Sustain_RR4_FF_A#5.opus
volume=+7.23
</region>

<region>
end=273121
hikey=C#5
hivel=127
lokey=C5
lovel=64
offset=18071
pitch_keycenter=C5
sample=Fender_Stratocaster_Muted_Sustain_RR4_FF_C6.opus
volume=+7.74
</region>

<region>
end=322807
hikey=D#5
hivel=127
lokey=D5
lovel=64
offset=19670
pitch_keycenter=D5
sample=Fender_Stratocaster_Muted_Sustain_RR4_FF_D6.opus
volume=+10.81
</region>

<region>
end=165642
hikey=F5
hivel=127
lokey=E5
lovel=64
offset=17050
pitch_keycenter=E5
sample=Fender_Stratocaster_Muted_Sustain_RR4_FF_E6.opus
volume=+9.48
</region>

<region>
end=186102
hikey=G5
hivel=127
lokey=F#5
lovel=64
offset=18644
pitch_keycenter=F#5
sample=Fender_Stratocaster_Muted_Sustain_RR4_FF_F#6.opus
volume=+9.97
</region>

<region>
end=267951
hikey=A5
hivel=127
lokey=G#5
lovel=64
offset=18743
pitch_keycenter=G#5
sample=Fender_Stratocaster_Muted_Sustain_RR4_FF_G#6.opus
volume=+13.58
</region>

<region>
end=276645
hikey=B5
hivel=127
lokey=A#5
lovel=64
offset=19317
pitch_keycenter=A#5
sample=Fender_Stratocaster_Muted_Sustain_RR4_FF_A#6.opus
volume=+13.55
</region>

<region>
end=208163
hikey=C#6
hivel=127
lokey=C6
lovel=64
offset=16215
pitch_keycenter=C6
sample=Fender_Stratocaster_Muted_Sustain_RR4_FF_C7.opus
volume=+8.96
</region>
</group>